<svg width="25" height="26" viewBox="0 0 25 26" fill="none" xmlns="http://www.w3.org/2000/svg">
<path d="M24.5139 13.1715C24.5139 6.2321 19.158 0.600098 12.5586 0.600098C5.95931 0.600098 0.603333 6.2321 0.603333 13.1715C0.603333 16.1887 1.60758 19.055 3.47261 21.3178L0.89026 24.0332C0.603333 24.335 0.555511 24.7372 0.698975 25.1395C0.842439 25.4915 1.17719 25.743 1.55976 25.743H12.5586C19.158 25.743 24.5139 20.111 24.5139 13.1715ZM5.4811 20.6138C3.56825 18.6024 2.51618 15.9875 2.51618 13.1715C2.51618 7.33838 7.01138 2.61153 12.5586 2.61153C18.1059 2.61153 22.6011 7.33838 22.6011 13.1715C22.6011 19.0047 18.1059 23.7315 12.5586 23.7315H3.85518L5.43328 22.0721C5.81585 21.6698 5.81585 21.0161 5.4811 20.6138ZM11.6022 13.1715C11.6022 12.6184 12.0326 12.1658 12.5586 12.1658C13.0847 12.1658 13.5151 12.6184 13.5151 13.1715C13.5151 13.7247 13.0847 14.1772 12.5586 14.1772C12.0326 14.1772 11.6022 13.7247 11.6022 13.1715ZM16.3843 13.1715C16.3843 12.6184 16.8147 12.1658 17.3408 12.1658C17.8668 12.1658 18.2972 12.6184 18.2972 13.1715C18.2972 13.7247 17.8668 14.1772 17.3408 14.1772C16.8147 14.1772 16.3843 13.7247 16.3843 13.1715ZM6.82009 13.1715C6.82009 12.6184 7.25048 12.1658 7.77652 12.1658C8.30255 12.1658 8.73294 12.6184 8.73294 13.1715C8.73294 13.7247 8.30255 14.1772 7.77652 14.1772C7.25048 14.1772 6.82009 13.7247 6.82009 13.1715Z" fill="#246BFD"/>
</svg>
