<svg width="120" height="120" viewBox="0 0 120 120" fill="none" xmlns="http://www.w3.org/2000/svg">
<g clip-path="url(#clip0_49_721)">
<rect width="120" height="120" fill="white"/>
<path fill-rule="evenodd" clip-rule="evenodd" d="M119.957 52.097C113.628 52.2692 107.358 52.1632 100.861 52.1983C100.851 52.1294 100.735 52.1659 100.726 52.097C99.8963 48.6845 98.8995 45.5137 97.5045 42.6342C96.1345 39.8056 94.4679 37.2092 92.6043 34.8766C92.1176 34.2671 91.7153 33.6362 91.228 33.0701C87.8443 29.1424 83.6049 25.9089 78.6763 23.4405C73.0468 20.621 65.9636 18.7677 57.6333 19.2277C53.7755 19.4405 50.1907 20.2498 47.0607 21.3345C40.686 23.5418 35.8238 26.7436 31.4544 31.099C29.3413 33.2044 27.3836 35.5336 25.7488 38.0536C22.3984 43.2161 19.9237 49.2899 19.305 56.9139C18.9649 61.1109 19.2594 65.0076 20.0101 68.5503C21.8454 77.2212 25.9078 83.757 31.1862 89.0153C31.715 89.5415 32.2403 90.0849 32.7975 90.5863C33.3477 91.0828 33.9208 91.5924 34.5761 91.9568C34.5982 91.9568 34.6203 91.9568 34.6431 91.9568C36.1286 89.0766 37.3224 86.0208 38.7042 83.029C40.0597 80.0938 41.3911 77.0765 42.7653 74.135C43.225 73.1502 43.7061 72.1819 44.1416 71.1922C44.5729 70.2101 44.942 69.1757 45.551 68.2824C48.8994 68.1598 52.9218 68.2149 56.358 68.2149C59.92 68.2149 63.4302 68.1006 66.829 68.2486C66.8581 68.6323 66.6389 68.9925 66.4938 69.3196C66.0721 70.2693 65.488 71.2852 65.1182 72.2948C64.9813 72.6688 64.908 73.0496 64.7491 73.3981C61.299 80.9629 57.7419 88.5849 54.3105 96.2371C53.714 97.5691 53.0013 98.859 52.5319 100.25C52.7953 100.504 53.1935 100.501 53.5391 100.551C54.6036 100.708 55.7718 100.854 56.9621 100.952C58.5859 101.086 60.2456 101.07 61.9295 101.053C65.1562 101.019 68.2032 100.375 70.8569 99.7475C73.4802 99.129 76.1139 98.0891 78.3411 96.9726C82.9593 94.6607 86.8828 91.9148 90.1891 88.3466C91.819 86.5869 93.3349 84.7212 94.7202 82.662C97.4741 78.5648 99.4836 73.7494 100.728 68.2149C100.755 68.2094 100.761 68.1812 100.795 68.1812C102.321 68.0228 103.9 68.1316 105.494 68.115C110.292 68.0655 115.272 68.0179 119.993 68.115C120.067 69.8465 119.671 71.5317 119.288 73.1309C118.154 77.8672 116.701 82.1888 114.757 86.1048C112.161 91.3335 109.03 95.9175 105.359 100.048C102.189 103.616 98.4267 106.776 94.3843 109.545C86.8683 114.696 77.9623 118.474 66.5276 119.678C62.9352 120.055 58.9785 120.103 55.3515 119.811C49.0411 119.304 43.6522 117.867 38.671 116.033C35.2245 114.763 31.9182 113.079 28.8705 111.217C21.6207 106.79 15.461 101.248 10.7467 94.3301C5.25954 86.0401 1.00215 76.6681 0.10698 63.801C0.0496065 62.9821 0.00605784 62.1171 0.0392377 61.2934C0.0731089 60.449 -0.0250483 59.6267 0.00536659 58.8182C0.436014 47.3615 3.51 38.212 7.85864 30.6617C9.13745 28.4433 10.3658 26.3063 11.8858 24.3758C13.3983 22.4564 14.8879 20.5514 16.585 18.7911C21.5903 13.6003 27.5343 9.06994 34.5408 5.81717C39.224 3.6436 44.2701 1.77927 50.2149 0.868104C52.4538 0.525127 54.7025 0.244134 57.1958 0.098816C67.3682 -0.49554 76.203 1.64566 83.3409 4.54581C90.0605 7.27654 95.6209 10.9887 100.626 15.3806C108.033 22.0487 113.744 30.3207 117.439 40.7271C118.357 43.3098 119.116 46.0674 119.655 49.0536C119.833 50.0371 119.978 51.0585 119.957 52.097Z" fill="#246BFD"/>
<path fill-rule="evenodd" clip-rule="evenodd" d="M82.7701 33.4726C82.571 34.328 82.1148 35.0856 81.7636 35.8804C79.6843 40.5829 77.4364 45.2454 75.3537 49.9576C75.0115 50.731 74.7302 51.5526 74.2124 52.2324C67.208 52.2861 60.1421 52.3708 52.9344 52.2324C52.9448 51.7861 53.195 51.3798 53.3706 50.9948C55.6738 45.9534 58.0711 40.8067 60.3522 35.713C60.6964 34.9451 61.0027 34.1283 61.4928 33.4396C64.2522 33.452 67.1721 33.4058 70.1182 33.4058C73.0656 33.4058 76.0574 33.5387 78.9447 33.4058C80.1972 33.3473 81.588 33.2991 82.7701 33.4726Z" fill="#246BFD"/>
</g>
<defs>
<clipPath id="clip0_49_721">
<rect width="120" height="120" fill="white"/>
</clipPath>
</defs>
</svg>
