<svg width="25" height="26" viewBox="0 0 25 26" fill="none" xmlns="http://www.w3.org/2000/svg">
<path fill-rule="evenodd" clip-rule="evenodd" d="M14.5 22.5969C13.8727 22.7367 13.2333 22.807 12.5922 22.8066C7.52813 22.8066 3.41718 18.4649 3.41718 13.1166C3.41718 12.3067 2.79439 11.6484 2.02702 11.6484C1.25966 11.6484 0.636871 12.3067 0.636871 13.1166C0.636871 20.0857 5.99396 25.743 12.5922 25.743C13.4435 25.743 14.2743 25.649 15.0755 25.4699C15.4282 25.3808 15.7339 25.1499 15.9277 24.8263C16.1214 24.5027 16.1878 24.1119 16.1128 23.7373C16.0377 23.3627 15.8272 23.0339 15.5259 22.8209C15.2247 22.6079 14.8566 22.5275 14.5 22.5969ZM13.885 3.52227C18.338 4.18589 21.7672 8.23221 21.7672 13.1166C21.7672 16.5721 20.0506 19.6077 17.4699 21.3237C17.1613 21.5328 16.9433 21.8622 16.8636 22.2402C16.7838 22.6182 16.8487 23.0141 17.0441 23.3418C17.2394 23.6696 17.5495 23.9025 17.9067 23.9899C18.2639 24.0773 18.6394 24.0121 18.9513 23.8085C22.3127 21.5727 24.5475 17.618 24.5475 13.1166C24.5475 6.75111 20.0768 1.47974 14.2737 0.614682C13.5141 0.501338 12.8102 1.06101 12.7028 1.86323C12.5955 2.66544 13.1254 3.40893 13.885 3.52227ZM4.07722 9.50249C4.56681 8.22269 5.30859 7.06754 6.25331 6.11374C7.19802 5.15994 8.32406 4.42931 9.55664 3.97036C9.90454 3.8414 10.1897 3.57176 10.3493 3.22076C10.509 2.86976 10.5301 2.46615 10.408 2.09872C10.2859 1.7313 10.0306 1.43015 9.6982 1.26154C9.36586 1.09292 8.9837 1.07064 8.63581 1.19961C7.03027 1.79741 5.56351 2.74909 4.33291 3.99146C3.10231 5.23383 2.13602 6.73846 1.49821 8.40546C1.36047 8.76665 1.36422 9.17084 1.50865 9.52911C1.65308 9.88738 1.92636 10.1704 2.26835 10.3159C2.61035 10.4613 2.99306 10.4574 3.33229 10.3048C3.67152 10.1523 3.93948 9.86368 4.07722 9.50249Z" fill="black"/>
</svg>
