<svg width="31" height="31" viewBox="0 0 31 31" fill="none" xmlns="http://www.w3.org/2000/svg">
<path fill-rule="evenodd" clip-rule="evenodd" d="M26.4198 9.66981L25.6447 8.31198C24.9889 7.16305 23.5357 6.7667 22.396 7.42594V7.42594C21.8535 7.74856 21.2061 7.84009 20.5967 7.68035C19.9872 7.52061 19.4657 7.12272 19.1472 6.57442C18.9423 6.22591 18.8322 5.82896 18.8281 5.42372V5.42372C18.8466 4.774 18.6037 4.1444 18.1549 3.67834C17.7061 3.21227 17.0896 2.94944 16.4457 2.94971H14.884C14.2532 2.9497 13.6484 3.20345 13.2034 3.6548C12.7584 4.10615 12.51 4.7179 12.513 5.35468V5.35468C12.4943 6.6694 11.4331 7.72526 10.1306 7.72512C9.72916 7.72092 9.33594 7.60977 8.9907 7.40293V7.40293C7.85099 6.74369 6.39774 7.14004 5.74197 8.28897L4.90985 9.66981C4.25487 10.8173 4.64216 12.2834 5.77617 12.9493V12.9493C6.5133 13.3789 6.96738 14.1729 6.96738 15.0321C6.96738 15.8913 6.5133 16.6853 5.77617 17.1149V17.1149C4.6436 17.7763 4.25589 19.2388 4.90985 20.3829V20.3829L5.69638 21.7522C6.00363 22.3119 6.51915 22.7248 7.12886 22.8998C7.73857 23.0747 8.39219 22.9971 8.9451 22.6843V22.6843C9.48865 22.3641 10.1364 22.2764 10.7443 22.4406C11.3522 22.6048 11.8699 23.0074 12.1824 23.5588C12.3873 23.9073 12.4974 24.3043 12.5016 24.7095V24.7095C12.5016 26.0377 13.5682 27.1145 14.884 27.1145H16.4457C17.757 27.1145 18.8218 26.0447 18.8281 24.721V24.721C18.825 24.0822 19.075 23.4687 19.5225 23.017C19.9699 22.5653 20.5777 22.313 21.2105 22.316C21.6109 22.3269 22.0026 22.4375 22.3504 22.6382V22.6382C23.4871 23.2994 24.9394 22.9085 25.5991 21.7637V21.7637L26.4198 20.3829C26.7375 19.8324 26.8247 19.1768 26.6621 18.5613C26.4995 17.9457 26.1005 17.421 25.5535 17.1034V17.1034C25.0065 16.7857 24.6075 16.261 24.4449 15.6454C24.2823 15.0299 24.3695 14.3743 24.6872 13.8238C24.8938 13.4597 25.1928 13.1579 25.5535 12.9493V12.9493C26.6807 12.2838 27.0671 10.8262 26.4198 9.68132V9.68132V9.66981Z" stroke="#212121" stroke-width="1.5" stroke-linecap="round" stroke-linejoin="round"/>
<ellipse cx="15.6705" cy="15.0323" rx="3.28292" ry="3.31402" stroke="#212121" stroke-width="1.5" stroke-linecap="round" stroke-linejoin="round"/>
</svg>
