<svg width="24" height="26" viewBox="0 0 24 26" fill="none" xmlns="http://www.w3.org/2000/svg">
<path d="M21.6159 4.09873C21.487 2.14434 20.0934 0.600098 18.3977 0.600098H3.2904C1.50995 0.600098 0.0614471 2.30214 0.0614471 4.39423V21.9488C0.0614471 24.0409 1.50995 25.743 3.2904 25.743H20.7431C22.5236 25.743 23.9721 24.0409 23.9721 21.9488V7.75085C23.972 6.01419 22.9735 4.54738 21.6159 4.09873ZM3.2904 2.37254H18.3978C19.2186 2.37254 19.9065 3.05166 20.0772 3.95677H3.2904C2.65823 3.95677 2.0684 4.17218 1.56986 4.54262V4.39423C1.56986 3.27948 2.3417 2.37254 3.2904 2.37254ZM20.7431 23.9705H3.2904C2.3417 23.9705 1.56986 23.0636 1.56986 21.9488V7.75085C1.56986 6.63609 2.3417 5.72916 3.2904 5.72916H20.7431C21.6918 5.72916 22.4636 6.63609 22.4636 7.75085V10.8436H17.6543C15.7486 10.8436 14.1981 12.6655 14.1981 14.9049C14.1981 17.1443 15.7486 18.9662 17.6543 18.9662H22.4636V21.9488C22.4636 23.0636 21.6918 23.9705 20.7431 23.9705ZM22.4636 17.1937H17.6543C16.5803 17.1937 15.7065 16.167 15.7065 14.9049C15.7065 13.6428 16.5803 12.6161 17.6543 12.6161H22.4636V17.1937Z" fill="black"/>
</svg>
